<svg xmlns="http://www.w3.org/2000/svg" viewBox="0 0 799 759">
<g transform="translate(0.000000,759.000000) scale(0.100000,-0.100000)"
fill="#111111" stroke="none">
<path d="M4300 7569 c-401 -44 -769 -197 -1085 -452 -150 -121 -316 -310 -417
-474 -38 -63 -55 -82 -67 -78 -95 39 -442 52 -586 23 -462 -95 -821 -402 -984
-845 -34 -94 -71 -255 -71 -315 0 -24 -3 -59 -6 -78 -6 -34 -9 -37 -77 -59
-296 -94 -585 -312 -759 -568 -91 -136 -188 -367 -218 -523 -19 -98 -27 -268
-19 -377 29 -364 175 -671 443 -931 218 -211 461 -341 776 -414 l95 -22 2432
-3 2433 -3 30 60 c16 32 30 66 30 75 0 13 -249 15 -2352 15 -1540 0 -2391 4
-2463 10 -269 26 -512 118 -722 274 -120 90 -144 112 -224 201 -175 197 -279
425 -316 690 -56 405 113 834 435 1109 107 91 157 123 288 188 122 62 139 68
242 98 105 30 112 40 112 154 0 358 187 715 480 916 202 138 384 199 618 207
152 6 205 -1 356 -43 49 -14 99 -23 110 -20 14 3 42 41 80 107 196 337 501
612 854 769 200 90 387 136 645 161 262 25 625 -46 903 -176 304 -142 585
-386 766 -665 193 -297 298 -647 298 -994 0 -130 1 -138 23 -160 18 -18 40
-25 88 -30 192 -20 364 -61 494 -118 369 -162 642 -446 780 -813 14 -38 38
-126 52 -195 22 -105 27 -151 27 -285 0 -220 -36 -387 -124 -570 -188 -392
-528 -662 -975 -774 l-110 -28 -6 -49 c-4 -27 -10 -61 -14 -77 -6 -24 -5 -27
18 -27 14 0 70 9 126 20 460 93 884 417 1091 835 102 207 148 385 157 615 16
395 -121 784 -379 1075 -192 216 -445 383 -710 469 -90 29 -149 43 -333 75
-37 6 -40 9 -38 36 4 56 -18 270 -38 373 -57 296 -203 615 -391 852 -319 402
-776 669 -1273 745 -124 19 -411 27 -525 14z"/>
</g>
<g transform="translate(0.000000,759.000000) scale(0.100000,-0.100000)"
fill="#bfbfbf" stroke="none">
<path d="M4345 7170 c-181 -19 -407 -85 -565 -165 -355 -179 -682 -554 -795
-911 -15 -49 -29 -91 -31 -92 -1 -2 -24 13 -51 33 -62 47 -209 119 -293 142
-102 28 -359 26 -463 -5 -143 -41 -287 -125 -389 -227 -103 -103 -200 -273
-239 -420 -36 -137 -27 -414 17 -530 4 -10 -6 -15 -38 -19 -189 -21 -246 -32
-353 -68 -373 -123 -656 -439 -719 -804 -58 -332 54 -670 303 -914 185 -181
424 -298 673 -330 55 -7 869 -10 2400 -10 1921 0 2317 2 2312 13 -3 8 -25 26
-49 41 -24 16 -52 37 -62 48 -10 11 -40 32 -68 45 -27 14 -63 36 -80 48 -16
12 -57 35 -90 50 -33 15 -74 38 -91 51 -17 13 -35 24 -40 24 -5 0 -45 22 -89
48 -44 26 -150 86 -235 131 -85 46 -169 95 -187 107 -17 13 -35 24 -40 24 -16
0 -320 202 -420 280 -183 142 -451 407 -528 523 -11 17 -31 47 -45 67 -14 21
-34 50 -44 66 -10 16 -26 40 -35 54 -10 14 -27 48 -38 75 -12 28 -37 84 -56
125 -55 120 -71 173 -111 361 -56 265 -54 410 8 477 53 58 166 70 247 25 41
-22 52 -34 67 -77 11 -28 22 -82 26 -121 20 -205 48 -319 123 -496 111 -261
236 -428 483 -646 145 -128 162 -141 270 -214 215 -145 353 -226 650 -384 102
-54 190 -101 195 -105 6 -5 45 -27 89 -49 175 -92 405 -258 496 -357 25 -27
63 -86 85 -132 l40 -83 50 5 c109 11 298 88 438 179 97 63 238 201 309 302
312 442 255 1045 -137 1438 -175 177 -419 302 -665 342 -64 10 -164 15 -304
15 l-208 0 6 28 c45 212 55 503 22 662 -44 212 -126 427 -218 575 -248 393
-645 660 -1103 740 -109 20 -321 27 -430 15z"/>
</g>
<g transform="translate(0.000000,759.000000) scale(0.100000,-0.100000)"
fill="#58a6bc" stroke="none">
<path d="M3890 5529 c-36 -14 -59 -38 -82 -84 -18 -35 -20 -52 -15 -145 18
-320 124 -637 304 -910 265 -401 649 -708 1393 -1112 418 -228 543 -304 627
-381 23 -22 40 -43 38 -48 -3 -4 8 -23 23 -41 42 -48 62 -92 73 -158 12 -77
-11 -142 -90 -248 -182 -244 -574 -520 -1126 -792 -1050 -518 -2590 -983
-4119 -1245 -225 -38 -262 -52 -297 -109 -39 -63 -17 -175 42 -218 52 -39 95
-40 286 -8 942 160 1759 359 2633 641 1641 530 2738 1166 2973 1725 14 33 33
98 42 145 10 46 21 88 25 92 22 24 -17 198 -51 227 -3 3 -23 39 -45 79 -70
133 -205 257 -429 393 -49 31 -200 115 -335 188 -654 354 -865 495 -1121 750
-175 174 -297 344 -370 513 -85 198 -117 322 -140 532 -7 67 -19 124 -30 146
-32 63 -136 97 -209 68z"/>
</g>
</svg>