<svg version="1.1" id="Layer_1" xmlns="http://www.w3.org/2000/svg" xmlns:xlink="http://www.w3.org/1999/xlink" x="0px" y="0px"
	 width="100%" viewBox="0 0 1024 1008" enable-background="new 0 0 1024 1008" xml:space="preserve">
<path fill="#000000" opacity="1.000000" stroke="none" 
	d="
M328.570435,846.455444 
	C383.871155,832.602966 438.247253,817.077637 491.439850,797.663452 
	C522.077087,786.481384 552.379517,774.470276 582.097229,760.943970 
	C594.837219,755.145203 606.679382,747.813416 619.139648,741.572815 
	C626.106628,738.083435 632.589111,733.504639 638.920044,728.907288 
	C643.722351,725.420044 649.859436,725.258545 654.645447,721.504700 
	C656.646606,719.935059 657.695129,717.589111 660.297852,716.366882 
	C669.672852,711.964661 678.395264,706.408691 685.999939,699.242554 
	C687.521729,697.808533 688.859131,696.457642 688.562988,694.526123 
	C698.576965,689.345215 706.168945,681.729126 712.317200,672.439392 
	C710.625183,670.735413 708.861816,671.346497 707.296143,671.345825 
	C583.130554,671.293579 458.964905,671.278931 334.799286,671.254883 
	C308.133209,671.249756 281.459869,671.609375 254.802765,671.110962 
	C214.673370,670.360657 179.927750,655.938293 150.497986,628.583862 
	C127.154282,606.886414 111.773018,580.617065 106.441628,549.198486 
	C98.558083,502.739716 110.458244,461.755402 142.893692,427.180664 
	C160.479477,408.435059 181.847183,395.588318 206.221817,387.686401 
	C209.353592,386.671112 210.687256,385.179321 210.811615,381.702850 
	C212.603729,331.605591 246.405136,284.674164 293.707123,266.846893 
	C318.632904,257.452850 344.198822,255.391052 370.171539,262.005157 
	C373.911255,262.957489 375.844421,262.223846 377.863220,258.948029 
	C406.174530,213.008820 446.300476,182.338501 498.654816,169.372833 
	C563.818481,153.234955 623.734497,165.710678 676.182617,208.042267 
	C715.451843,239.736938 738.630920,281.478729 747.010986,331.253540 
	C748.497375,340.082336 749.663513,349.052063 749.198242,358.077545 
	C749.003235,361.860229 750.509827,363.229553 754.286987,363.741455 
	C788.730469,368.409241 819.041748,382.012482 844.649597,405.796295 
	C874.075073,433.125977 890.254639,466.914093 893.201965,506.782318 
	C896.284973,548.485901 883.638306,585.202209 856.096985,616.705017 
	C834.671021,641.212830 808.116150,657.599915 776.754395,666.132507 
	C770.358582,667.872559 763.759949,668.901367 757.219116,670.055420 
	C755.024231,670.442688 753.681091,671.232056 752.811584,673.395630 
	C746.409119,689.326294 735.763245,702.186218 723.389648,713.795715 
	C720.874573,716.155457 718.164062,718.271606 716.615356,721.658264 
	C715.426025,724.259033 711.876892,724.093567 709.639893,725.951233 
	C685.844055,745.711670 659.295288,761.170288 631.975891,775.468506 
	C590.739990,797.050232 547.808716,814.651855 504.156158,830.593750 
	C476.363403,840.743530 448.071747,849.403870 419.781067,858.005127 
	C385.737854,868.355225 351.264801,877.164124 316.684235,885.576965 
	C280.468903,894.387451 243.809784,900.949341 207.260620,908.082275 
	C199.436172,909.609314 191.537247,910.759827 183.664215,912.031677 
	C173.425720,913.685547 164.601044,907.405518 162.883850,897.296692 
	C161.267929,887.784180 167.520172,879.456482 177.639526,877.617371 
	C199.525391,873.639832 221.450424,869.862427 243.281357,865.603088 
	C260.217560,862.298706 277.055878,858.479187 293.898834,854.714722 
	C305.357697,852.153625 316.749390,849.292053 328.570435,846.455444 
M421.499969,653.726624 
	C449.159180,653.466614 476.824799,653.342529 504.479095,653.303894 
	C549.290833,653.241211 594.093323,651.637695 638.911987,652.699402 
	C664.895630,653.314941 690.891968,653.381470 716.881470,653.773743 
	C718.816528,653.802979 721.160339,652.864807 722.262146,655.939392 
	C724.476990,662.119873 728.501648,663.683044 734.191284,660.430908 
	C739.187988,657.574951 744.385925,656.252625 750.005005,657.184631 
	C753.182983,657.711853 755.539429,657.739197 756.300720,653.822754 
	C756.626770,652.145142 758.396423,651.961975 759.930725,651.713684 
	C768.665222,650.299988 777.136902,647.924011 785.467651,644.933167 
	C846.040588,623.187256 885.150574,561.910095 874.779541,498.129608 
	C865.697266,442.275482 832.567017,406.550507 780.436462,387.333008 
	C768.056763,382.769318 755.012573,380.739960 741.815491,379.724030 
	C734.161682,379.134827 731.754089,376.246216 731.674377,368.955505 
	C731.652527,366.955811 731.659973,364.955658 731.668945,362.955780 
	C731.824280,328.282501 722.914734,296.135895 704.715820,266.607086 
	C667.882996,206.843506 598.533264,170.287430 521.942383,181.859741 
	C462.079498,190.904587 417.268524,223.402832 387.566742,276.355377 
	C384.210846,282.338257 381.890411,283.473663 375.404205,281.368835 
	C357.339844,275.506836 339.022064,273.822388 320.263062,277.337891 
	C296.432129,281.803864 275.903992,292.625031 259.153748,310.013885 
	C237.764053,332.219025 228.118668,359.236176 228.243332,389.910461 
	C228.273346,397.295349 226.491684,399.461548 219.190811,401.445099 
	C187.989777,409.921875 162.489777,426.852203 143.781906,453.328278 
	C122.964943,482.789215 116.266403,515.462341 124.068306,550.662598 
	C137.022369,609.108215 192.298141,652.568909 253.010147,653.512390 
	C308.827698,654.379883 364.669067,653.715698 421.499969,653.726624 
z"/>
<path fill="#000000" opacity="1.000000" stroke="none" 
	d="
M157.817642,475.626984 
	C156.760345,476.973663 156.592987,478.785309 154.263062,478.777740 
	C155.952133,471.598846 160.472076,466.577759 166.094803,462.214752 
	C163.394592,466.587036 160.694382,470.959320 157.817642,475.626984 
z"/>
</svg>